<?xml version="1.0" encoding="UTF-8"?>
<svg width="4692px" height="1584px" viewBox="0 0 4692 1584" version="1.1" xmlns="http://www.w3.org/2000/svg" xmlns:xlink="http://www.w3.org/1999/xlink">
    <title>Full White</title>
    <g id="Full-White" stroke="none" stroke-width="1" fill="none" fill-rule="evenodd">
        <g id="Pillar-Logo-vector-07" transform="translate(526.000000, 264.000000)" fill="#FFFFFF" fill-rule="nonzero">
            <g id="Group" transform="translate(1122.000000, 150.000000)">
                <path d="M0.15,47.66 L218.06,47.66 C337.86,47.66 419.93,125.95 419.93,245.76 C419.93,364.62 334.09,446.69 218.06,446.69 L76.56,446.69 L76.56,707.99 L0.15,707.99 L0.15,47.66 L0.15,47.66 Z M211.46,378.77 C290.7,378.77 341.64,322.17 341.64,245.76 C341.64,170.29 290.7,115.58 211.46,115.58 L76.57,115.58 L76.57,378.76 L211.46,378.76 L211.46,378.77 Z" id="Shape"></path>
                <path d="M616.13,280.66 L523.68,280.66 L523.68,217.46 L690.65,217.46 L690.65,707.98 L616.13,707.98 L616.13,280.66 Z M599.15,74.08 C599.15,43.89 621.79,20.31 652.92,20.31 C684.99,20.31 707.63,43.89 707.63,74.08 C707.63,105.21 684.99,128.79 652.92,128.79 C621.79,128.79 599.15,105.21 599.15,74.08 Z" id="Shape"></path>
                <polygon id="Path" points="863.27 643.84 962.32 643.84 962.32 64.64 863.27 64.64 863.27 0.5 1036.84 0.5 1036.84 643.84 1135.89 643.84 1135.89 707.98 863.27 707.98 863.27 643.84"></polygon>
                <polygon id="Path" points="1239.65 643.84 1338.7 643.84 1338.7 64.64 1239.65 64.64 1239.65 0.5 1413.22 0.5 1413.22 643.84 1512.27 643.84 1512.27 707.98 1239.65 707.98 1239.65 643.84"></polygon>
                <path d="M1592.45,463.66 C1592.45,312.73 1686.78,205.19 1826.39,205.19 C1928.27,205.19 1979.21,271.22 1993.36,296.69 L1999.02,296.69 L1999.02,217.45 L2074.49,217.45 L2074.49,619.3 C2074.49,634.39 2083.92,641.94 2099.02,641.94 L2121.66,641.94 L2121.66,707.97 L2073.55,707.97 C2032.99,707.97 2002.8,677.78 2001.86,635.34 L2001.86,630.62 L1996.2,630.62 C1983.94,650.43 1938.66,720.24 1832.06,720.24 C1691.5,720.25 1592.45,613.65 1592.45,463.66 Z M2001.84,464.61 C2001.84,342.92 1926.38,273.12 1834.87,273.12 C1738.65,273.12 1668.85,352.36 1668.85,464.61 C1668.85,578.75 1741.48,653.27 1835.82,653.27 C1938.64,653.27 2001.84,567.43 2001.84,464.61 Z" id="Shape"></path>
                <path d="M2272.57,217.46 L2346.15,217.46 L2346.15,299.53 L2351.81,299.53 C2365.96,258.02 2414.07,205.2 2485.76,205.2 L2517.83,205.2 L2517.83,279.72 L2473.49,279.72 C2383.87,279.72 2347.09,352.35 2347.09,445.74 L2347.09,707.98 L2272.57,707.98 L2272.57,217.46 L2272.57,217.46 Z" id="Path"></path>
            </g>
            <polygon id="Path" points="197.99 1055.96 0 857.97 0 659.98 527.98 659.98 527.98 0 725.98 197.99 725.98 857.97 197.99 857.97"></polygon>
            <rect id="Rectangle" x="0" y="132" width="263.99" height="263.99"></rect>
        </g>
    </g>
</svg>