<?xml version="1.0" encoding="UTF-8"?>
<svg width="4692px" height="1584px" viewBox="0 0 4692 1584" version="1.1" xmlns="http://www.w3.org/2000/svg" xmlns:xlink="http://www.w3.org/1999/xlink">
    <title>Full Purple</title>
    <g id="Full-Purple" stroke="none" stroke-width="1" fill="none" fill-rule="evenodd">
        <g id="Pillar-Logo-vector-10" transform="translate(526.000000, 264.000000)" fill="#A945FF" fill-rule="nonzero">
            <path d="M1122.15,197.66 L1340.06,197.66 C1459.86,197.66 1541.93,275.95 1541.93,395.76 C1541.93,514.62 1456.09,596.69 1340.06,596.69 L1198.56,596.69 L1198.56,857.99 L1122.15,857.99 L1122.15,197.66 L1122.15,197.66 Z M1333.46,528.77 C1412.7,528.77 1463.64,472.17 1463.64,395.76 C1463.64,320.29 1412.7,265.58 1333.46,265.58 L1198.57,265.58 L1198.57,528.76 L1333.46,528.76 L1333.46,528.77 Z" id="Shape"></path>
            <path d="M1738.13,430.66 L1645.68,430.66 L1645.68,367.46 L1812.65,367.46 L1812.65,857.98 L1738.13,857.98 L1738.13,430.66 Z M1721.15,224.08 C1721.15,193.89 1743.79,170.31 1774.92,170.31 C1806.99,170.31 1829.63,193.89 1829.63,224.08 C1829.63,255.21 1806.99,278.79 1774.92,278.79 C1743.79,278.79 1721.15,255.21 1721.15,224.08 Z" id="Shape"></path>
            <polygon id="Path" points="1985.27 793.84 2084.32 793.84 2084.32 214.64 1985.27 214.64 1985.27 150.5 2158.84 150.5 2158.84 793.84 2257.89 793.84 2257.89 857.98 1985.27 857.98 1985.27 793.84"></polygon>
            <polygon id="Path" points="2361.65 793.84 2460.7 793.84 2460.7 214.64 2361.65 214.64 2361.65 150.5 2535.22 150.5 2535.22 793.84 2634.27 793.84 2634.27 857.98 2361.65 857.98 2361.65 793.84"></polygon>
            <path d="M2714.45,613.66 C2714.45,462.73 2808.78,355.19 2948.39,355.19 C3050.27,355.19 3101.21,421.22 3115.36,446.69 L3121.02,446.69 L3121.02,367.45 L3196.49,367.45 L3196.49,769.3 C3196.49,784.39 3205.92,791.94 3221.02,791.94 L3243.66,791.94 L3243.66,857.97 L3195.55,857.97 C3154.99,857.97 3124.8,827.78 3123.86,785.34 L3123.86,780.62 L3118.2,780.62 C3105.94,800.43 3060.66,870.24 2954.06,870.24 C2813.5,870.25 2714.45,763.65 2714.45,613.66 Z M3123.84,614.61 C3123.84,492.92 3048.38,423.12 2956.87,423.12 C2860.65,423.12 2790.85,502.36 2790.85,614.61 C2790.85,728.75 2863.48,803.27 2957.82,803.27 C3060.64,803.27 3123.84,717.43 3123.84,614.61 Z" id="Shape"></path>
            <path d="M3394.57,367.46 L3468.15,367.46 L3468.15,449.53 L3473.81,449.53 C3487.96,408.02 3536.07,355.2 3607.76,355.2 L3639.83,355.2 L3639.83,429.72 L3595.49,429.72 C3505.87,429.72 3469.09,502.35 3469.09,595.74 L3469.09,857.98 L3394.57,857.98 L3394.57,367.46 L3394.57,367.46 Z" id="Path"></path>
            <polygon id="Path" points="197.99 1055.96 0 857.97 0 659.98 527.98 659.98 527.98 0 725.98 197.99 725.98 857.97 197.99 857.97"></polygon>
            <rect id="Rectangle" x="0" y="132" width="263.99" height="263.99"></rect>
        </g>
    </g>
</svg>